<?xml version="1.0" standalone="no"?>
<!DOCTYPE svg PUBLIC "-//W3C//DTD SVG 20010904//EN"
 "http://www.w3.org/TR/2001/REC-SVG-20010904/DTD/svg10.dtd">
<svg version="1.0" xmlns="http://www.w3.org/2000/svg"
 width="512.000000pt" height="512.000000pt" viewBox="0 0 512.000000 512.000000"
 preserveAspectRatio="xMidYMid meet">

<g transform="translate(0.000000,512.000000) scale(0.100000,-0.100000)"
fill="#000000" stroke="none">
<path d="M100 2560 l0 -2460 2460 0 2460 0 0 2460 0 2460 -2460 0 -2460 0 0
-2460z m1650 890 c0 -5 -12 -10 -26 -10 -39 0 -90 -35 -105 -73 -15 -36 -15
-117 1 -146 5 -11 10 -38 10 -60 0 -39 2 -41 53 -64 28 -13 62 -27 73 -31 21
-6 22 -13 29 -260 10 -350 -5 -503 -65 -669 -28 -76 -105 -212 -134 -236 -11
-9 -15 -4 -20 26 -3 21 -6 51 -6 66 0 17 -6 30 -17 33 -10 4 -31 12 -48 19
-58 24 -83 26 -97 7 -7 -10 -28 -29 -46 -42 -23 -17 -32 -31 -30 -49 1 -14 -4
-37 -12 -51 -17 -32 -32 -93 -35 -150 -2 -42 -5 -45 -36 -52 -54 -13 -207 -12
-292 1 -152 24 -337 103 -352 151 -3 11 -1 45 4 77 6 31 11 58 11 60 0 2 8 3
19 3 10 0 32 7 47 15 16 8 36 15 45 15 16 0 29 18 35 52 6 28 44 86 62 94 9 4
64 8 122 9 83 1 115 6 154 23 27 12 55 22 63 22 25 0 71 58 93 117 44 118 46
394 5 844 -13 140 -20 179 -36 202 -18 25 -18 27 -2 28 18 0 497 35 521 38 6
0 12 -3 12 -9z m945 -50 c4 -16 4 -34 1 -39 -10 -15 12 -61 29 -61 8 0 15 -4
15 -10 0 -5 9 -10 19 -10 11 0 23 -4 26 -10 11 -18 64 -11 75 9 5 11 19 23 30
26 12 4 20 15 20 28 0 12 4 28 8 34 6 10 74 -204 118 -373 5 -17 0 -22 -24
-27 -51 -10 -82 -46 -90 -102 -10 -68 10 -225 28 -225 5 0 26 -11 46 -25 42
-28 76 -32 94 -10 7 8 22 15 34 15 20 0 31 -32 135 -392 63 -216 116 -401 119
-412 5 -17 1 -18 -48 -11 -36 5 -121 -1 -276 -21 -163 -20 -227 -25 -235 -17
-6 6 -24 57 -40 114 -40 143 -41 144 -189 144 -117 0 -119 0 -148 -28 -26 -25
-33 -27 -52 -17 -13 7 -33 8 -53 3 -18 -4 -37 -8 -43 -8 -6 0 -19 -8 -28 -18
-10 -9 -22 -17 -27 -17 -6 0 -10 -15 -9 -32 3 -49 1 -55 -15 -72 -13 -12 -13
-19 -3 -35 7 -11 10 -23 7 -26 -8 -7 -383 30 -398 39 -19 12 -13 46 55 271
133 448 118 410 168 433 45 22 78 65 123 162 12 25 33 56 47 69 26 25 35 51
16 51 -5 0 -10 9 -10 20 0 11 -5 20 -11 20 -5 0 -8 4 -4 9 9 15 -17 61 -34 61
-47 1 -46 10 18 224 36 119 61 221 59 239 l-3 32 205 11 c113 6 213 12 222 12
11 1 19 -8 23 -28z m1739 24 c58 -8 59 -14 4 -74 -16 -18 -15 -19 6 -34 13 -8
42 -34 66 -58 l42 -43 -7 -115 c-3 -63 -11 -119 -16 -124 -5 -6 -16 -3 -28 8
-17 16 -34 17 -163 11 -78 -4 -156 -7 -173 -6 -61 1 -115 -10 -115 -25 0 -8
-7 -14 -15 -14 -12 0 -15 -16 -15 -80 l0 -80 225 0 224 0 -5 -62 c-3 -35 -9
-118 -13 -185 -4 -68 -10 -126 -14 -129 -11 -12 -56 31 -70 69 -10 23 -22 37
-34 38 -10 1 -34 2 -53 4 -19 2 -38 -2 -42 -9 -5 -7 -8 -5 -8 7 0 36 -28 15
-34 -25 -4 -29 -42 -55 -88 -61 -28 -4 -56 -15 -68 -27 -19 -19 -20 -32 -20
-350 0 -274 -2 -330 -14 -330 -7 0 -19 7 -26 15 -9 11 -33 14 -99 13 -71 -1
-93 3 -126 21 -49 26 -70 26 -120 1 -46 -23 -166 -28 -183 -7 -7 8 -6 186 4
572 7 308 13 606 14 662 l0 102 33 1 c17 0 53 1 79 1 41 0 50 4 69 30 12 17
19 33 16 36 -3 3 7 19 23 36 25 27 27 32 13 46 -9 8 -28 44 -44 78 -16 35 -36
66 -46 70 -16 6 -15 8 7 14 32 9 751 11 814 3z m55 -1254 c165 -47 216 -264
88 -377 -47 -41 -96 -56 -168 -51 -45 3 -70 12 -102 34 -50 34 -97 119 -97
174 0 148 142 260 279 220z"/>
<path d="M2560 2763 c0 -10 -18 -101 -40 -203 -22 -101 -39 -185 -37 -186 6
-6 186 -6 196 0 6 4 11 20 11 35 0 36 -68 343 -77 352 -5 4 -18 10 -30 14 -18
5 -23 2 -23 -12z"/>
<path d="M4340 1955 c0 -136 0 -136 23 -133 19 3 22 10 25 56 3 47 5 52 26 52
18 0 30 -12 52 -55 22 -42 34 -55 52 -55 28 0 28 6 -3 55 -30 49 -31 59 -5 85
25 25 26 71 1 101 -16 20 -30 24 -95 27 l-76 4 0 -137z m138 57 c3 -27 -1 -34
-23 -42 -54 -20 -65 -14 -65 36 l0 45 43 -3 c39 -3 42 -5 45 -36z"/>
</g>
</svg>
