<?xml version="1.0" encoding="UTF-8"?>
<svg version="1.1" xmlns="http://www.w3.org/2000/svg" width="1563" height="1563">
<path d="M0 0 C91.64363837 -3.08215042 187.50755241 27.45702912 262.84619141 83.12548828 C263.4865332 83.5945459 264.126875 84.06360352 264.78662109 84.546875 C277.7641846 94.05894608 290.00242883 104.22856226 301.84619141 115.12548828 C302.43803223 115.66689453 303.02987305 116.20830078 303.63964844 116.76611328 C312.30616888 124.7095243 320.61123782 132.82588087 328.45361328 141.58447266 C329.83252701 143.11036737 331.2328654 144.61288067 332.64306641 146.10986328 C339.52207836 153.43213552 345.78731607 161.11459035 351.84619141 169.12548828 C352.39710449 169.851875 352.94801758 170.57826172 353.515625 171.32666016 C404.62027476 238.97146325 435.70121115 319.40178225 441.84619141 404.12548828 C441.90403809 404.92019531 441.96188477 405.71490234 442.02148438 406.53369141 C447.05280983 479.57002409 433.31077657 552.64749697 402.84619141 619.12548828 C402.44432617 620.01284668 402.04246094 620.90020508 401.62841797 621.81445312 C392.65862555 641.55016481 381.92260969 660.13629643 369.84619141 678.12548828 C369.38857422 678.80981934 368.93095703 679.49415039 368.45947266 680.19921875 C357.18316042 697.00708331 344.75043137 712.65961888 331.11181641 727.61376953 C329.84038427 729.0233055 328.57601893 730.43957417 327.33813477 731.87866211 C322.7465867 737.21182535 317.89643802 742.22549608 312.90869141 747.18798828 C311.76883789 748.33364258 311.76883789 748.33364258 310.60595703 749.50244141 C305.39506905 754.70442949 300.10940711 759.96853352 294.17918396 764.35992432 C289.16801035 768.24621015 287.13741384 771.94260375 285.07666016 777.86767578 C284.7586293 778.72622162 284.44059845 779.58476746 284.1129303 780.46932983 C283.06696509 783.30630799 282.05067457 786.1530063 281.03369141 789.00048828 C280.29267225 791.02568845 279.54946325 793.05008854 278.80419922 795.07373047 C277.24759103 799.30674982 275.70130237 803.54333344 274.16210938 807.78271484 C271.97386738 813.79537036 269.73525275 819.78797959 267.47509766 825.77392578 C267.11563049 826.72617538 266.75616333 827.67842499 266.38580322 828.65953064 C265.65625939 830.59176243 264.92664494 832.52396756 264.19696045 834.45614624 C249.71221036 872.87105275 235.35777335 911.35587875 221.84619141 950.12548828 C256.76625861 951.43863844 290.1055098 941.93769509 323.26708984 932.17529297 C324.44819336 931.82885742 325.62929687 931.48242188 326.84619141 931.12548828 C328.07499023 930.74811523 329.30378906 930.37074219 330.56982422 929.98193359 C334.43669472 928.97113019 336.99893356 929.06937828 340.84619141 930.12548828 C342.34619141 932.06298828 342.34619141 932.06298828 342.84619141 934.12548828 C341.43524361 936.94738388 339.82223235 937.12213359 336.90478516 938.26220703 C335.8585498 938.67124268 334.81231445 939.08027832 333.734375 939.50170898 C332.59564941 939.93443115 331.45692383 940.36715332 330.28369141 940.81298828 C329.1114502 941.25924561 327.93920898 941.70550293 326.73144531 942.1652832 C299.20607613 952.46370189 270.97973365 958.99269486 241.61962891 960.50830078 C239.72519043 960.61621948 239.72519043 960.61621948 237.79248047 960.72631836 C235.28772975 960.86506222 232.78171058 960.98284915 230.27490234 961.07739258 C229.12538086 961.14095947 227.97585938 961.20452637 226.79150391 961.27001953 C225.25260498 961.33733276 225.25260498 961.33733276 223.68261719 961.40600586 C219.78623639 962.39435447 218.33244435 963.9955794 215.84619141 967.12548828 C214.74439428 969.5680694 213.87514085 971.79437205 213.08447266 974.32861328 C212.85226517 975.03091064 212.62005768 975.73320801 212.3808136 976.45678711 C211.62467654 978.75831595 210.89114773 981.06632429 210.15869141 983.37548828 C209.6346587 984.99263232 209.10974365 986.60949069 208.58398438 988.22607422 C206.97907197 993.18454043 205.40920596 998.15368254 203.84619141 1003.12548828 C203.60628479 1003.88555176 203.36637817 1004.64561523 203.11920166 1005.42871094 C190.67765399 1043.35399417 190.67765399 1043.35399417 185.27978516 1082.67236328 C185.11594605 1086.29107048 184.80345477 1089.03174941 182.84619141 1092.12548828 C177.88207083 1092.53072261 174.57336715 1092.08776105 170.42041016 1089.46533203 C166.69484079 1086.294438 164.76950449 1081.8727112 163.84619141 1077.12548828 C162.3394644 1058.08857208 168.11053628 1039.4130887 173.40869141 1021.37548828 C174.03440559 1019.21449152 174.65964514 1017.05335726 175.28442383 1014.89208984 C179.87984641 999.07516227 184.76428031 983.36567391 190.03686523 967.76123047 C190.81463166 965.22826928 191.37669795 962.73148722 191.84619141 960.12548828 C190.77626953 960.03912109 189.70634766 959.95275391 188.60400391 959.86376953 C156.59229888 957.03910216 125.50421021 948.21160205 95.16259766 937.89892578 C94.02847694 937.51400467 94.02847694 937.51400467 92.8714447 937.12130737 C89.34516056 935.91813301 85.82922238 934.69223183 82.32446289 933.42773438 C75.29323984 930.96299368 69.31941009 929.38164638 61.84619141 930.12548828 C61.43892822 930.99898926 61.43892822 930.99898926 61.0234375 931.89013672 C59.85448859 934.10973362 58.56516084 935.92654528 57.01025391 937.89111328 C56.44693359 938.6079126 55.88361328 939.32471191 55.30322266 940.06323242 C54.69865234 940.82627686 54.09408203 941.58932129 53.47119141 942.37548828 C48.84789423 948.25607072 44.29391384 954.1736775 39.84619141 960.18798828 C33.47975867 968.74974266 26.71450192 976.96357693 19.84619141 985.12548828 C19.31461426 985.7576123 18.78303711 986.38973633 18.23535156 987.04101562 C12.15723977 994.24745673 5.94001106 1001.30270816 -0.47021484 1008.21533203 C-2.33213356 1010.2344433 -4.17250816 1012.26193369 -5.99365234 1014.31689453 C-6.4511084 1014.83034424 -6.90856445 1015.34379395 -7.37988281 1015.87280273 C-8.64255583 1017.29256021 -9.90029159 1018.71670422 -11.15771484 1020.14111328 C-13.15380859 1022.12548828 -13.15380859 1022.12548828 -15.15380859 1022.12548828 C-15.15380859 1022.78548828 -15.15380859 1023.44548828 -15.15380859 1024.12548828 C-17.61640033 1026.67275366 -20.43563157 1028.85673958 -23.15380859 1031.12548828 C-23.97494141 1031.83318359 -24.79607422 1032.54087891 -25.64208984 1033.27001953 C-43.50205449 1048.37822666 -64.53650512 1060.71383868 -88.60693359 1060.34033203 C-102.97049377 1059.12868202 -115.83387699 1053.1144272 -125.65380859 1042.56298828 C-142.11053186 1022.79989139 -147.28319359 998.64977985 -145.96630859 973.50048828 C-145.31799015 967.42676815 -143.54512523 961.51680491 -139.15380859 957.12548828 C-131.91769629 956.55119365 -131.91769629 956.55119365 -129.53076172 958.34570312 C-127.68630718 960.72975872 -127.90720574 961.98931006 -128.14990234 964.96533203 C-128.24815308 966.42169067 -128.24815308 966.42169067 -128.34838867 967.9074707 C-128.42855225 968.9487915 -128.50871582 969.9901123 -128.59130859 971.06298828 C-130.12127777 997.18637723 -125.25635575 1020.84126155 -109.10302734 1041.97705078 C-104.98452591 1046.51648122 -100.15968833 1048.66004321 -94.10302734 1049.36376953 C-68.38047867 1050.20786008 -45.10357364 1032.63607395 -27.15380859 1016.12548828 C-24.92618431 1013.93818298 -22.7388785 1011.7338674 -20.60693359 1009.45361328 C-19.15380859 1008.12548828 -19.15380859 1008.12548828 -17.15380859 1008.12548828 C-16.95142578 1007.59439453 -16.74904297 1007.06330078 -16.54052734 1006.51611328 C-14.54917667 1003.08313692 -11.80881598 1000.61704532 -8.96630859 997.87548828 C-4.13112871 993.12308458 0.45937825 988.29693469 4.84619141 983.12548828 C5.81860117 982.01475565 6.79273272 980.9055293 7.76806641 979.79736328 C14.10402019 972.58144223 20.21780849 965.24951636 26.09619141 957.65673828 C28.48237087 954.57602243 30.92423026 951.54394613 33.37817383 948.51708984 C37.92137055 942.90204946 42.35319952 937.22155826 46.59619141 931.37548828 C47.02681885 930.79089844 47.45744629 930.20630859 47.90112305 929.60400391 C50.34855797 926.21764197 50.34855797 926.21764197 50.84619141 922.12548828 C39.29293946 917.27349119 27.73589928 912.4307011 16.17198181 907.60417175 C11.92890085 905.83289227 7.68639907 904.06044111 3.44970703 902.27392578 C-39.19647379 884.29232911 -85.73395378 875.40164951 -130.31201172 892.72680664 C-139.36605861 896.44300583 -147.76720419 901.12750531 -156.03857422 906.35229492 C-160.09220356 908.82262341 -162.29458867 910.13643912 -167.13818359 910.07470703 C-170.15380859 909.12548828 -170.15380859 909.12548828 -172.15380859 907.37548828 C-173.15380859 905.12548828 -173.15380859 905.12548828 -173.27880859 902.81298828 C-167.4137224 888.80194903 -146.40112745 880.697369 -133.36083984 874.87939453 C-121.56474207 870.17924395 -107.82627715 867.5479039 -95.15380859 867.12548828 C-93.97818359 867.07392578 -92.80255859 867.02236328 -91.59130859 866.96923828 C-47.94503448 865.66033484 -8.85113421 884.36228319 30.08447266 901.73486328 C30.94091873 902.11588196 31.79736481 902.49690063 32.67976379 902.88946533 C36.40692884 904.55460773 40.11662988 906.23847969 43.78125 908.03759766 C44.90998535 908.58738281 46.0387207 909.13716797 47.20166016 909.70361328 C48.60967896 910.41372559 48.60967896 910.41372559 50.04614258 911.13818359 C53.47270788 912.34639966 56.23796038 912.39724353 59.84619141 912.12548828 C61.95334914 910.6564786 61.95334914 910.6564786 63.47119141 908.31298828 C64.14021484 907.39904297 64.80923828 906.48509766 65.49853516 905.54345703 C66.28439687 904.40641444 67.06662336 903.26685506 67.84619141 902.12548828 C68.31299316 901.44953613 68.77979492 900.77358398 69.26074219 900.07714844 C71.41600948 896.9528035 73.56191792 893.82250543 75.68945312 890.67919922 C80.25775961 883.93203968 84.98867538 877.3152377 89.79614258 870.73681641 C90.31281494 870.02847656 90.8294873 869.32013672 91.36181641 868.59033203 C91.8184668 867.96763428 92.27511719 867.34493652 92.74560547 866.70336914 C93.91600545 865.10660409 93.91600545 865.10660409 94.84619141 863.12548828 C94.06002441 863.31812256 93.27385742 863.51075684 92.46386719 863.70922852 C46.89921961 874.58928097 -2.81026984 875.24122219 -49.15380859 869.12548828 C-51.05912354 868.87605469 -51.05912354 868.87605469 -53.00292969 868.62158203 C-106.21255405 861.3921954 -155.31476252 843.1299327 -203.15380859 819.12548828 C-201.99795575 815.21337095 -200.79845897 812.25098418 -198.15380859 809.12548828 C-193.37197812 810.54096877 -189.23047106 812.6400573 -184.90380859 815.06298828 C-137.71673827 840.65597558 -82.48556554 854.72415695 -29.15380859 859.12548828 C-28.10773438 859.21830078 -27.06166016 859.31111328 -25.98388672 859.40673828 C-15.79236128 860.23773045 -5.62314575 860.36864446 4.59619141 860.37548828 C5.9681366 860.3765004 5.9681366 860.3765004 7.36779785 860.37753296 C34.35352364 860.34623312 60.96604224 857.973451 87.46020508 852.74609375 C90.84619141 852.12548828 90.84619141 852.12548828 94.50756836 851.72753906 C99.70714561 851.01555367 103.48898397 850.41979624 107.36425781 846.72412109 C109.65375514 843.59457762 111.62842906 840.36903605 113.53369141 837.00048828 C114.2522222 835.80830926 114.97517806 834.61878677 115.70239258 833.43188477 C117.13456192 831.08338686 118.54442038 828.72390203 119.93505859 826.35058594 C122.38760554 822.21183464 125.00587731 818.19975178 127.65869141 814.18798828 C136.20025895 801.00645801 144.51783948 787.68372935 152.77490234 774.32275391 C156.99320303 767.49836953 161.2252822 760.6827323 165.47119141 753.87548828 C166.04393799 752.95485596 166.61668457 752.03422363 167.20678711 751.08569336 C176.26869964 736.57214645 185.68133132 722.28945464 195.18017578 708.05932617 C196.84661959 705.5623467 198.51057887 703.06372465 200.17431641 700.56494141 C208.72545122 687.735242 217.40077714 674.99634394 226.26318359 662.37939453 C227.89284286 660.05906536 229.51477266 657.73348487 231.13525391 655.40673828 C238.40678589 644.97869791 245.77219822 634.62589121 253.24169922 624.33886719 C254.8512346 622.11853125 256.45511928 619.89422786 258.05712891 617.66845703 C265.32338175 607.57521555 272.67094955 597.54474342 280.0625 587.54296875 C281.8759576 585.08514543 283.68406891 582.62347259 285.49072266 580.16064453 C291.27898696 572.27408563 297.09837801 564.42373851 303.09228516 556.69189453 C305.98009743 552.96367308 308.83045758 549.20724676 311.68286133 545.4519043 C314.44338215 541.82007906 317.21212149 538.19456623 319.98193359 534.56982422 C321.59108197 532.45997697 323.19209543 530.34427756 324.79150391 528.22705078 C329.77966672 521.68225924 335.08208567 515.49058767 340.65869141 509.43798828 C341.28138916 508.75373779 341.90408691 508.0694873 342.5456543 507.36450195 C346.89794132 502.72965196 350.70178922 499.53309597 357.22119141 498.68798828 C361.65305411 499.22286826 365.36324778 500.26013878 368.84619141 503.12548828 C373.07679216 508.87880527 373.51839565 513.59785849 373.40869141 520.62548828 C373.39773438 521.63377686 373.38677734 522.64206543 373.37548828 523.6809082 C372.81316722 543.79482022 366.09118803 563.17402532 359.84619141 582.12548828 C359.52748077 583.09291962 359.52748077 583.09291962 359.20233154 584.07989502 C345.68459154 625.02256089 329.65469333 665.02781149 313.84619141 705.12548828 C313.45316833 706.12265869 313.06014526 707.1198291 312.6552124 708.1472168 C308.05873553 719.80922317 303.45653864 731.46895829 298.84619141 743.12548828 C303.78916382 739.26116842 308.16724338 734.99650365 312.59619141 730.56298828 C313.40386963 729.75450439 314.21154785 728.94602051 315.04370117 728.11303711 C319.92753262 723.17886197 324.52334029 718.20974894 328.79541016 712.73486328 C330.70064374 710.31068036 332.68864681 707.98061973 334.71386719 705.65649414 C349.68706534 688.39579751 362.48435753 668.9254854 373.84619141 649.12548828 C374.51473145 647.96098145 374.51473145 647.96098145 375.19677734 646.77294922 C427.45560799 554.98822196 444.1954337 445.27768883 415.03369141 320.43798828 C398.55290169 261.45865178 369.04556815 206.33240304 328.84619141 160.12548828 C328.21068359 159.38943359 327.57517578 158.65337891 326.92041016 157.89501953 C325.24105966 155.96087103 323.54502867 154.04252482 321.84619141 152.12548828 C321.24291016 151.42939453 320.63962891 150.73330078 320.01806641 150.01611328 C314.97728364 144.28270387 309.67122698 138.84476922 304.28369141 133.43798828 C303.5755127 132.72521729 302.86733398 132.01244629 302.13769531 131.27807617 C297.53592625 126.68963167 292.77648938 122.35665227 287.84619141 118.12548828 C286.75152151 117.16429533 285.65772463 116.20210691 284.56494141 115.23876953 C275.98267424 107.74167738 267.06360359 100.82175023 257.84619141 94.12548828 C257.16153809 93.6251709 256.47688477 93.12485352 255.77148438 92.609375 C240.25105412 81.30428052 223.95810508 71.4848334 207.08203125 62.34619141 C204.91448922 61.16277689 202.76474856 59.95149967 200.61572266 58.73486328 C108.62048441 7.50528748 -8.83801529 -0.26352639 -108.96630859 27.81298828 C-133.54738041 34.94675266 -157.19668047 43.7579147 -180.15380859 55.12548828 C-181.19730469 55.63837402 -182.24080078 56.15125977 -183.31591797 56.6796875 C-216.84766836 73.2749045 -247.2469317 94.2979909 -275.15380859 119.12548828 C-275.6773291 119.58971191 -276.20084961 120.05393555 -276.74023438 120.53222656 C-284.36922128 127.33299389 -291.64736185 134.49360575 -298.90380859 141.68798828 C-299.77924316 142.55037109 -300.65467773 143.41275391 -301.55664062 144.30126953 C-307.52504375 150.26177048 -312.89484589 156.53661988 -318.15380859 163.12548828 C-319.04144391 164.18748054 -319.93348162 165.24584155 -320.83349609 166.29736328 C-375.30134476 230.2631642 -409.46209913 314.38377185 -416.15380859 398.12548828 C-416.23920898 399.14425049 -416.32460938 400.1630127 -416.41259766 401.21264648 C-417.25430408 412.28681806 -417.39689916 423.3359334 -417.40380859 434.43798828 C-417.40448334 435.42115021 -417.40515808 436.40431213 -417.40585327 437.41726685 C-417.34117923 497.25042868 -405.15659157 556.59343467 -380.07885742 611.02636719 C-379.5505835 612.18442871 -379.02230957 613.34249023 -378.47802734 614.53564453 C-378.00453857 615.54763916 -377.5310498 616.55963379 -377.04321289 617.60229492 C-376.15380859 620.12548828 -376.15380859 620.12548828 -377.15380859 623.12548828 C-379.22021484 624.07470703 -379.22021484 624.07470703 -381.71630859 624.81298828 C-382.95574219 625.19003906 -382.95574219 625.19003906 -384.22021484 625.57470703 C-385.17734375 625.84734375 -385.17734375 625.84734375 -386.15380859 626.12548828 C-407.17137358 584.45362487 -420.2868768 538.37309545 -426.15380859 492.12548828 C-426.26418457 491.2652002 -426.37456055 490.40491211 -426.48828125 489.51855469 C-427.13205691 484.39572253 -427.71860008 479.27060851 -428.15380859 474.12548828 C-428.24065918 473.11397705 -428.32750977 472.10246582 -428.41699219 471.06030273 C-429.29393224 459.60733968 -429.39702834 448.16983157 -429.40380859 436.68798828 C-429.40448334 435.65391846 -429.40515808 434.61984863 -429.40585327 433.55444336 C-429.3873169 415.56411417 -428.55202228 397.9705378 -426.15380859 380.12548828 C-425.98220215 378.84367676 -425.8105957 377.56186523 -425.63378906 376.24121094 C-415.74405283 304.92728628 -388.28488462 235.9196996 -345.15380859 178.12548828 C-344.75242676 177.58666016 -344.35104492 177.04783203 -343.9375 176.49267578 C-335.60823741 165.35620429 -326.65768172 154.76479304 -317.29443359 144.48486328 C-315.93601358 142.98762662 -314.59055439 141.4784442 -313.26318359 139.95361328 C-302.71232864 127.90736157 -291.37638753 115.98430737 -278.72412109 106.13720703 C-276.33020221 104.26354711 -274.03121911 102.30665699 -271.73852539 100.3112793 C-257.52623032 87.99512465 -241.9711496 77.26306878 -226.15380859 67.12548828 C-225.5630957 66.74650391 -224.97238281 66.36751953 -224.36376953 65.97705078 C-156.71718332 23.04673318 -79.47260888 3.16217069 0 0 Z M349.29150391 516.67626953 C345.60366946 520.36999509 342.38379627 524.37003477 339.16064453 528.46972656 C337.69404069 530.31714619 336.20225227 532.14220295 334.70556641 533.96533203 C329.0698759 540.83328747 323.55182878 547.75037004 318.26806641 554.89501953 C315.30313969 558.88150745 312.22245338 562.77734638 309.15869141 566.68798828 C303.58086839 573.8201253 298.16585439 581.05786191 292.82055664 588.36547852 C289.51550167 592.87889327 286.16058481 597.33861463 282.72119141 601.75048828 C278.48353771 607.21865153 274.47648537 612.82440005 270.50878906 618.49072266 C267.43955888 622.8733928 264.33704797 627.22816711 261.19116211 631.55615234 C248.38464464 649.17516031 236.1079158 667.14915097 223.91113281 685.19314575 C222.63524097 687.08062991 221.35857017 688.96758779 220.08105469 690.85397339 C212.82695645 701.57111152 205.73217749 712.35317056 198.93731689 723.36715698 C196.00483878 728.09279863 192.97785847 732.75937701 189.97119141 737.43798828 C181.39428243 750.81530833 172.89122644 764.23588998 164.48510742 777.72119141 C152.72567296 796.58005955 140.7660701 815.30680923 128.54150391 833.86791992 C127.95369141 834.76373779 127.36587891 835.65955566 126.76025391 836.58251953 C126.24414551 837.36602783 125.72803711 838.14953613 125.19628906 838.95678711 C123.94480676 840.96707956 122.86432748 842.98922605 121.84619141 845.12548828 C168.99062997 834.87669729 214.06124742 810.38215871 253.23657227 782.92773438 C254.88228195 781.79118007 256.5631841 780.70259676 258.28588867 779.68652344 C266.45271711 774.42670837 268.87512458 765.92541561 272.15869141 757.25048828 C272.83135189 755.5350834 273.50696802 753.82083502 274.18530273 752.10766602 C275.64461401 748.41608041 277.09121557 744.7198426 278.53076172 741.02050781 C282.1537118 731.75038262 285.95863396 722.55390187 289.73846436 713.34695435 C291.88683106 708.10724174 294.02222721 702.86225006 296.15869141 697.61767578 C298.90039218 690.890285 301.64839223 684.16558027 304.40869141 677.44580078 C341.07702822 596.70879844 341.07702822 596.70879844 358.84619141 511.12548828 C354.3305824 511.12548828 352.51748233 513.70442767 349.29150391 516.67626953 Z M249.68286133 797.62890625 C217.28993274 819.83623228 181.76388752 836.82985925 144.59619141 849.37548828 C143.60772217 849.71499512 142.61925293 850.05450195 141.60083008 850.40429688 C136.82731615 851.99691291 132.20891591 853.30971515 127.23681641 854.10986328 C118.79098923 855.59976897 112.8891039 857.21940592 107.43994141 864.20361328 C103.88406789 869.32555589 100.74498189 874.67065244 97.64990234 880.08007812 C95.03407726 884.49667288 92.04156768 888.58053135 88.97119141 892.68798828 C87.92725774 894.11732489 86.88553395 895.54827852 85.84619141 896.98095703 C85.10175781 898.00648682 85.10175781 898.00648682 84.34228516 899.05273438 C81.84705204 902.50973978 79.38753092 905.98788643 76.97119141 909.50048828 C76.53564941 910.11351807 76.10010742 910.72654785 75.65136719 911.3581543 C73.42444714 914.49788047 73.42444714 914.49788047 73.02294922 918.19555664 C74.38724994 921.39389507 76.76603902 921.79315949 79.86279297 923.04492188 C86.25808644 925.36125321 92.72735926 927.41929336 99.22119141 929.43798828 C99.99053009 929.67848907 100.75986877 929.91898987 101.55252075 930.16677856 C115.86604959 934.63185634 130.24559837 938.69393371 144.84619141 942.12548828 C145.72694336 942.33254395 146.60769531 942.53959961 147.51513672 942.75292969 C157.83672436 945.12087026 168.21005615 946.67009398 178.72119141 947.93798828 C180.39000366 948.14246582 180.39000366 948.14246582 182.0925293 948.35107422 C183.14303467 948.46870117 184.19354004 948.58632812 185.27587891 948.70751953 C186.2064209 948.81298096 187.13696289 948.91844238 188.09570312 949.02709961 C191.2069169 949.13839192 193.83024586 948.9106563 196.84619141 948.12548828 C200.84532653 941.97881 202.82766929 934.76741058 205.18670654 927.8578186 C210.41032871 912.61110369 215.99923924 897.50376346 221.72119141 882.43798828 C222.11363037 881.40453278 222.50606934 880.37107727 222.91040039 879.30630493 C230.62918226 859.02414461 238.67312425 838.87387978 246.8125 818.75756836 C247.26748367 817.62992065 247.72246735 816.50227295 248.1912384 815.3404541 C249.0411928 813.23485276 249.89408884 811.1304354 250.75053406 809.02746582 C252.7361483 804.10578629 254.51576066 799.26491776 255.84619141 794.12548828 C253.52699015 794.12548828 251.54788808 796.34512573 249.68286133 797.62890625 Z " fill="#FFFFFF" transform="translate(778.15380859375,324.87451171875)"/>
<path d="M0 0 C2.78181017 1.65724861 4.40798905 2.88342239 5.92578125 5.74609375 C6.04746899 9.44155819 3.52796951 11.63398783 1.25 14.3125 C0.21833676 15.58063771 -0.81156202 16.85021257 -1.83984375 18.12109375 C-2.3694873 18.76933105 -2.89913086 19.41756836 -3.44482422 20.08544922 C-18.20141809 38.25204405 -29.00939847 58.94454386 -40.03125 79.5 C-42.55877452 84.20597915 -45.16474823 88.86093994 -47.8125 93.5 C-51.70400838 100.36334727 -55.29993926 107.34909682 -58.75390625 114.44140625 C-59.66774599 116.31778566 -60.58488559 118.19255892 -61.50390625 120.06640625 C-70.39632763 138.20862764 -78.84646308 156.5141404 -87 175 C-86.34728119 174.99333817 -85.69456238 174.98667633 -85.02206421 174.97981262 C-78.1089989 174.91244032 -71.19602957 174.86778637 -64.28271484 174.83520508 C-61.71692099 174.82029699 -59.15115178 174.79996348 -56.58544922 174.77368164 C-1.84212415 174.22774703 -1.84212415 174.22774703 16.56640625 189.19140625 C18.36597182 191.46170287 18.8088364 193.123221 19 196 C18.34 196.66 17.68 197.32 17 198 C12.16274896 197.60627026 9.2652368 195.27627523 5.4765625 192.47265625 C-10.34581494 183.06408165 -35.41932753 186.68151985 -53.22607422 186.73925781 C-56.82910313 186.7508275 -60.43183966 186.74394891 -64.0348587 186.73211288 C-66.84188045 186.72488835 -69.64883249 186.72718191 -72.45585632 186.73236847 C-74.42617997 186.73433256 -76.39650642 186.72830794 -78.36682129 186.72210693 C-79.55996948 186.72841125 -80.75311768 186.73471558 -81.98242188 186.74121094 C-83.02716675 186.74280212 -84.07191162 186.74439331 -85.14831543 186.74603271 C-88.15807845 187.01407826 -90.30852508 187.64134464 -93 189 C-94.62638454 191.19551452 -94.62638454 191.19551452 -95.8046875 193.94140625 C-96.29735107 194.98208252 -96.79001465 196.02275879 -97.29760742 197.0949707 C-97.81814697 198.23925537 -98.33868652 199.38354004 -98.875 200.5625 C-99.44181345 201.77689426 -100.00996098 202.99066661 -100.5793457 204.20385742 C-102.41139935 208.12451886 -104.20824035 212.06079462 -106 216 C-106.44113129 216.96788452 -106.44113129 216.96788452 -106.89117432 217.95532227 C-109.62325818 223.94988558 -112.34591412 229.94869283 -115.05786133 235.95239258 C-126.23028655 260.65549847 -138.02140532 285.0772519 -149.84765625 309.47265625 C-151.8344501 313.57517866 -153.80297219 317.68521192 -155.74609375 321.80859375 C-177.71697844 368.40524613 -202.54602816 412.3200143 -237.625 450.375 C-238.53137207 451.36669189 -238.53137207 451.36669189 -239.45605469 452.37841797 C-240.92906331 453.95880715 -242.45968044 455.48514026 -244 457 C-244.66 457 -245.32 457 -246 457 C-246.25007812 457.58136719 -246.50015625 458.16273438 -246.7578125 458.76171875 C-257.61268935 478.32097798 -292.41807808 496.01191294 -312.9375 502.25 C-334.59058917 508.02415711 -357.33165099 507.66606641 -377.53125 497.1640625 C-394.08862522 487.4657066 -407.7900919 472.71427766 -417 456 C-417.44214844 455.20980469 -417.88429688 454.41960937 -418.33984375 453.60546875 C-432.2269456 427.47745646 -430.37157849 396.65215503 -422.0300293 369.10571289 C-417.37183883 354.62395504 -410.76899075 340.44567521 -402 328 C-401.36320312 327.09121094 -400.72640625 326.18242188 -400.0703125 325.24609375 C-393.14246724 315.55519737 -385.67976556 306.51342223 -377.578125 297.796875 C-375.56072683 295.60830365 -373.60924807 293.39615681 -371.6875 291.125 C-362.9967863 281.14214182 -353.39174535 272.17711109 -343 264 C-341.29111141 262.56316013 -339.58279321 261.12564165 -337.875 259.6875 C-285.2033289 216.72833563 -216.36651486 188.85861152 -149.35546875 179.47265625 C-148.41046509 179.34008926 -147.46546143 179.20752228 -146.49182129 179.07093811 C-141.71486086 178.40534203 -136.93625481 177.75930874 -132.15283203 177.1418457 C-130.37922668 176.9044977 -128.6056262 176.66711322 -126.83203125 176.4296875 C-125.60700142 176.27990196 -125.60700142 176.27990196 -124.35722351 176.12709045 C-119.26403028 175.4338871 -115.21766102 174.50405841 -111.65966797 170.48657227 C-107.91967517 164.27047651 -105.00661744 157.68570688 -102.07022095 151.06533813 C-100.43426106 147.38254011 -98.77411898 143.71069428 -97.11328125 140.0390625 C-96.773004 139.2865773 -96.43272675 138.5340921 -96.08213806 137.75880432 C-79.85345326 101.97475453 -61.41388252 67.33491188 -39 35 C-38.55285645 34.35466309 -38.10571289 33.70932617 -37.64501953 33.04443359 C-13.14232159 -2.13823486 -13.14232159 -2.13823486 0 0 Z M-131.48046875 191.03125 C-132.23254105 191.14237122 -132.98461334 191.25349243 -133.75947571 191.36798096 C-174.32256906 197.4398923 -212.47799936 208.1813376 -250 225 C-251.27593018 225.56170898 -251.27593018 225.56170898 -252.57763672 226.13476562 C-266.66573795 232.35821919 -279.81226685 240.07357931 -293 248 C-294.34234927 248.79834297 -295.68478266 249.59654454 -297.02734375 250.39453125 C-303.01000294 254.00119975 -308.72890357 257.84359919 -314.33203125 262.015625 C-316.08415386 263.31881429 -317.85217802 264.60094331 -319.63671875 265.859375 C-340.06874209 280.29601631 -359.53391919 298.38512332 -375 318 C-375.85907796 319.0468872 -376.71981652 320.09241347 -377.58203125 321.13671875 C-401.3272687 350.18820241 -418.07940467 386.71610319 -414.4375 424.9375 C-411.83543021 446.86889223 -401.23768154 469.46274811 -383.75 483.3125 C-369.2387869 494.26840285 -353.58482464 496.22376941 -336 494 C-317.9331682 490.93657397 -301.65165902 481.65119178 -287 471 C-286.45714355 470.61263672 -285.91428711 470.22527344 -285.35498047 469.82617188 C-275.46240372 462.72873593 -266.74068352 454.44630181 -258 446 C-257.07832031 445.11957031 -256.15664063 444.23914062 -255.20703125 443.33203125 C-252.50954868 440.75320864 -252.50954868 440.75320864 -250 438 C-250 437.34 -250 436.68 -250 436 C-249.34 436 -248.68 436 -248 436 C-246.31053607 434.05819356 -244.74234695 432.10889863 -243.1875 430.0625 C-242.70466553 429.43496826 -242.22183105 428.80743652 -241.72436523 428.16088867 C-240.68403466 426.80761177 -239.64611911 425.45247564 -238.61035156 424.09570312 C-237.02595799 422.0337816 -235.41886832 419.99177924 -233.8046875 417.953125 C-225.7734961 407.74408633 -218.67326279 397.13993568 -212 386 C-211.53303711 385.22301758 -211.06607422 384.44603516 -210.58496094 383.64550781 C-185.06604164 340.85388011 -165.09225931 294.8372425 -145.3996582 249.16381836 C-141.38904057 239.86800894 -137.27707238 230.62284974 -133.09130859 221.40478516 C-131.07450749 216.96060376 -129.0684317 212.5115951 -127.0625 208.0625 C-126.68448242 207.22702637 -126.30646484 206.39155273 -125.91699219 205.53076172 C-124.93659409 203.3573221 -123.96578005 201.17996594 -123 199 C-122.58621094 198.07058594 -122.17242188 197.14117188 -121.74609375 196.18359375 C-120.78444751 193.75373208 -120.78444751 193.75373208 -121 190 C-124.55748954 190 -127.9708385 190.51123878 -131.48046875 191.03125 Z " fill="#FFFFFF" transform="translate(802,647)"/>
<path d="M0 0 C-4.9523758 6.28625353 -10.02866513 12.45107455 -15.22973633 18.53198242 C-17.58407471 21.29181616 -19.84033504 24.08630902 -22 27 C-21.15816162 26.87882813 -20.31632324 26.75765625 -19.44897461 26.6328125 C-16.29798475 26.18164854 -13.14640934 25.73488832 -9.99438477 25.29101562 C-8.63541375 25.0987434 -7.276683 24.90476437 -5.91821289 24.70898438 C-3.95524539 24.42639779 -1.99129834 24.15064275 -0.02734375 23.875 C1.15093994 23.70742188 2.32922363 23.53984375 3.54321289 23.3671875 C7.05614396 22.99403627 10.47012768 22.93693137 14 23 C9.82615431 27.23057757 5.52398909 31.31183619 1.1875 35.375 C0.51396484 36.00921875 -0.15957031 36.6434375 -0.85351562 37.296875 C-18.66450096 54 -18.66450096 54 -22 54 C-23 51.4375 -23 51.4375 -23 48 C-20.70636733 45.23975439 -17.8163092 43.2042609 -15 41 C-13.15420353 39.38917055 -11.32082562 37.7640028 -9.5 36.125 C-8.6440625 35.36445312 -7.788125 34.60390625 -6.90625 33.8203125 C-6.2771875 33.21960938 -5.648125 32.61890625 -5 32 C-5 31.67 -5 31.34 -5 31 C-5.80219971 31.12117187 -6.60439941 31.24234375 -7.4309082 31.3671875 C-11.05776801 31.91372582 -14.68512341 32.45690264 -18.3125 33 C-19.57513672 33.19078125 -20.83777344 33.3815625 -22.13867188 33.578125 C-23.34716797 33.75859375 -24.55566406 33.9390625 -25.80078125 34.125 C-27.47394409 34.37636719 -27.47394409 34.37636719 -29.1809082 34.6328125 C-32 35 -32 35 -35 35 C-33.44723191 31.48584063 -31.33432968 28.81419888 -28.875 25.875 C-24.52080178 20.63161382 -20.24486515 15.33210582 -16 10 C-17.56332886 10.41354591 -19.12559327 10.83111489 -20.6875 11.25 C-21.68265625 11.51683594 -22.6778125 11.78367187 -23.703125 12.05859375 C-28.23965823 13.35397824 -32.69469431 14.88212379 -37.15234375 16.42578125 C-40 17 -40 17 -42.37890625 16.10546875 C-42.91386719 15.74066406 -43.44882813 15.37585938 -44 15 C-43.72688293 13.09822083 -43.72688293 13.09822083 -43 11 C-40.14112313 9.76235185 -37.48403805 8.82087142 -34.51171875 7.94921875 C-33.65697464 7.68615433 -32.80223053 7.4230899 -31.92158508 7.15205383 C-30.11072926 6.59876286 -28.29732745 6.05374776 -26.48168945 5.51635742 C-23.70314773 4.69214168 -20.93455342 3.83956729 -18.16601562 2.98242188 C-16.40676801 2.44881004 -14.64701723 1.91685367 -12.88671875 1.38671875 C-12.05742355 1.13162033 -11.22812836 0.87652191 -10.373703 0.61369324 C-9.59642349 0.38627945 -8.81914398 0.15886566 -8.01831055 -0.07543945 C-7.33737839 -0.27877396 -6.65644623 -0.48210846 -5.95487976 -0.69160461 C-3.6961982 -1.04792677 -2.16148902 -0.68939153 0 0 Z " fill="#FFFFFF" transform="translate(1131,557)"/>
<path d="M0 0 C1.6398665 2.45979975 2.59423812 4.29977528 3.60400391 7.01245117 C3.90416412 7.81305466 4.20432434 8.61365814 4.51358032 9.43852234 C4.83136444 10.29798965 5.14914856 11.15745697 5.4765625 12.04296875 C5.80667328 12.9265657 6.13678406 13.81016266 6.47689819 14.72053528 C7.52987425 17.54152673 8.57749624 20.36447256 9.625 23.1875 C10.33818981 25.10104263 11.05172728 27.01445573 11.765625 28.92773438 C13.51445348 33.61699634 15.25848295 38.30801804 17 43 C14 45 14 45 11 45 C8.03 37.08 5.06 29.16 2 21 C0.26858091 24.46283819 -0.63529166 27.14167751 -1.5078125 30.859375 C-1.77207031 31.97441406 -2.03632812 33.08945312 -2.30859375 34.23828125 C-2.57800781 35.39714844 -2.84742188 36.55601562 -3.125 37.75 C-3.40214844 38.92433594 -3.67929687 40.09867187 -3.96484375 41.30859375 C-4.64766942 44.20471642 -5.32587693 47.10184154 -6 50 C-9.11647604 47.12051834 -11.17719855 44.28104261 -13.234375 40.578125 C-13.75225586 39.65418945 -14.27013672 38.73025391 -14.80371094 37.77832031 C-15.44598633 36.61397461 -16.08826172 35.44962891 -16.75 34.25 C-18.8125 30.5375 -20.875 26.825 -23 23 C-23.66 31.91 -24.32 40.82 -25 50 C-27.97 50.495 -27.97 50.495 -31 51 C-30.32006043 35.30771039 -29.2153097 19.65927429 -28 4 C-24.59576627 7.0887835 -22.52916564 10.27428348 -20.328125 14.296875 C-20.00084412 14.89050842 -19.67356323 15.48414185 -19.33636475 16.09576416 C-18.30109715 17.97703824 -17.2754439 19.86335662 -16.25 21.75 C-15.54620352 23.03289823 -14.84178268 24.31545415 -14.13671875 25.59765625 C-12.41723866 28.72784347 -10.70633648 31.86262445 -9 35 C-8.69763428 33.72938721 -8.69763428 33.72938721 -8.38916016 32.43310547 C-7.63462372 29.26803967 -6.87768049 26.10356165 -6.11914062 22.93945312 C-5.79233938 21.57412144 -5.46647739 20.20856455 -5.14160156 18.84277344 C-4.67243765 16.87113369 -4.1998174 14.90034876 -3.7265625 12.9296875 C-3.44377441 11.74616699 -3.16098633 10.56264648 -2.86962891 9.34326172 C-2.04456952 6.17134615 -1.07558129 3.09487185 0 0 Z " fill="#FFFFFF" transform="translate(745,366)"/>
<path d="M0 0 C4.17524328 0.72245391 6.67458196 1.8742383 10.125 4.375 C10.97320313 4.98085938 11.82140625 5.58671875 12.6953125 6.2109375 C17.77697321 10.15568429 17.77697321 10.15568429 18.875 14.3125 C19.01999119 18.58974007 18.39776673 20.48327546 16 24 C15.113125 24.391875 14.22625 24.78375 13.3125 25.1875 C12.549375 25.785625 11.78625 26.38375 11 27 C10.7928822 29.78258256 10.94523155 32.4795015 11.07421875 35.265625 C10.96836936 39.1653392 9.60733068 41.17539176 7 44 C3.56747173 46.60398696 0.1907569 46.27452246 -4 46 C-6.57532072 44.96655585 -8.83843708 43.94039796 -11.25 42.625 C-12.16652344 42.14933594 -12.16652344 42.14933594 -13.1015625 41.6640625 C-15.83883353 40.22968467 -18.42678978 38.71547348 -21 37 C-19.42298841 30.89413459 -16.09525813 26.01111066 -12.75 20.75 C-11.61910062 18.95355984 -10.48888978 17.15668605 -9.359375 15.359375 C-8.52889648 14.04163086 -8.52889648 14.04163086 -7.68164062 12.69726562 C-5.0641342 8.49891908 -2.52712787 4.25319523 0 0 Z M3 7 C1.94345583 8.47506444 0.9292999 9.98064696 -0.0625 11.5 C-0.88427734 12.75296875 -0.88427734 12.75296875 -1.72265625 14.03125 C-2.35494141 15.00578125 -2.35494141 15.00578125 -3 16 C0.28159448 19.51599408 2.71096995 21.72084999 7.5625 22.3125 C9.99993085 22.15624998 9.99993085 22.15624998 11.875 20.9375 C13.26217398 18.88563637 13.26217398 18.88563637 13.1875 15.625 C11.69256134 11.06150305 9.87390424 10.1031861 5.8125 7.84765625 C4.18251424 6.92939443 4.18251424 6.92939443 3 7 Z M-7 22 C-9.31 25.96 -11.62 29.92 -14 34 C-7.63373991 39.40359729 -7.63373991 39.40359729 0.1875 40.9375 C3.02124932 40.18424215 3.02124932 40.18424215 4.9375 38.375 C6.57701915 34.71019249 6.24719974 32.80724131 5 29 C1.3899084 25.32427037 -2.00199065 23.24950234 -7 22 Z " fill="#FFFFFF" transform="translate(984,419)"/>
<path d="M0 0 C6.50096969 1.09600644 12.00796406 6.24383498 15.76171875 11.4375 C19.55450278 18.39274865 20.21667747 24.54162971 18 32.125 C15.72053223 37.57827219 11.02467283 41.12906835 6.10546875 44.171875 C1.12087692 46.13241947 -5.15335232 45.8267655 -10.24609375 44.34765625 C-15.71031518 41.78595888 -20.36852283 37.81668026 -25 34 C-23.432494 28.69539361 -19.95459071 25.06135106 -16.4375 20.9375 C-10.71408289 14.11909778 -5.24093932 7.19589288 0 0 Z M2 7 C-0.23306091 9.6842848 -2.46071559 12.37300714 -4.6875 15.0625 C-5.31333984 15.81466797 -5.93917969 16.56683594 -6.58398438 17.34179688 C-10.25127252 21.77710348 -13.71677178 26.27290469 -17 31 C-15.49364535 35.21779303 -12.75987578 36.7747674 -9 39 C-3.92461603 40.69179466 0.31964436 40.56371867 5.1875 38.375 C9.60032385 35.92913252 12.11562798 33.01546294 13.5625 28.08203125 C14.72958088 21.79681445 12.6848523 17.4711167 9.125 12.25 C6.92021566 9.91552246 4.76812684 8.5896174 2 7 Z " fill="#FFFFFF" transform="translate(1024,445)"/>
<path d="M0 0 C2.03232342 1.51373055 2.74023486 2.94848627 3.69921875 5.265625 C2.83941406 5.678125 1.97960937 6.090625 1.09375 6.515625 C-6.45741136 10.204742 -13.64865289 14.17562196 -20.75390625 18.6640625 C-24.22956929 20.84967883 -25.6334978 21.40301369 -29.67578125 20.953125 C-30.83207031 20.83517578 -30.83207031 20.83517578 -32.01171875 20.71484375 C-34.46443282 20.23350908 -36.20657336 19.63261345 -38.30078125 18.265625 C-39.36328125 15.015625 -39.36328125 15.015625 -39.30078125 11.265625 C-35.30991866 3.74438397 -26.60792751 1.09567543 -18.921875 -1.5546875 C-11.80226129 -3.53313201 -6.52340272 -3.22966107 0 0 Z " fill="#FFFFFF" transform="translate(825.30078125,600.734375)"/>
<path d="M0 0 C2.75131564 8.25394693 4.22987046 17.29776103 4 26 C2.35 26 0.7 26 -1 26 C-1.99 19.4 -2.98 12.8 -4 6 C-5.959375 6.309375 -7.91875 6.61875 -9.9375 6.9375 C-11.03964844 7.11152344 -12.14179687 7.28554688 -13.27734375 7.46484375 C-15.90426929 7.71845136 -15.90426929 7.71845136 -17 9 C-16.7423521 11.07006765 -16.41786592 13.13195201 -16.0625 15.1875 C-15.31311535 19.52996072 -14.8862666 23.59115811 -15 28 C-16.65 28 -18.3 28 -20 28 C-20.99 22.06 -21.98 16.12 -23 10 C-27.29 10 -31.58 10 -36 10 C-35.855625 10.92941406 -35.71125 11.85882812 -35.5625 12.81640625 C-35.2840625 14.67072266 -35.2840625 14.67072266 -35 16.5625 C-34.7215625 18.38974609 -34.7215625 18.38974609 -34.4375 20.25390625 C-34.01444923 23.87627848 -33.92498575 27.35712046 -34 31 C-35.65 31 -37.3 31 -39 31 C-39.50610903 27.77176021 -40.00379907 24.54227635 -40.5 21.3125 C-40.71462891 19.94448242 -40.71462891 19.94448242 -40.93359375 18.54882812 C-41.06894531 17.66259766 -41.20429687 16.77636719 -41.34375 15.86328125 C-41.46943359 15.05157471 -41.59511719 14.23986816 -41.72460938 13.40356445 C-42.00977723 10.91466595 -42.04674739 8.50293311 -42 6 C-34.30765796 4.1518399 -26.58091274 2.9762221 -18.75 1.875 C-17.49703125 1.69324219 -16.2440625 1.51148438 -14.953125 1.32421875 C-13.7465625 1.15277344 -12.54 0.98132813 -11.296875 0.8046875 C-10.20729492 0.64983887 -9.11771484 0.49499023 -7.99511719 0.33544922 C-5.29577892 0.03312685 -2.71248353 -0.06476259 0 0 Z " fill="#FFFFFF" transform="translate(1181,696)"/>
<path d="M0 0 C1.32 0.99 2.64 1.98 4 3 C2.43214037 7.04243325 -0.44658193 9.4597782 -3.625 12.25 C-4.70792841 13.22687094 -5.78995612 14.20474126 -6.87109375 15.18359375 C-7.91389117 16.12258614 -8.95684988 17.06139945 -10 18 C-15.60340122 22.86689332 -15.60340122 22.86689332 -19.1875 29.1875 C-18.8773789 33.83931649 -16.91242971 36.08757029 -13.6875 39.3125 C-10.27507727 41.45518404 -8.96208164 41.85456663 -5 41 C-2.01388593 39.02116364 0.434667 36.48724067 3 34 C4.28016012 32.80342539 5.56294336 31.60965391 6.84765625 30.41796875 C10.57694868 26.95785502 14.2919291 23.48283456 18 20 C19.32 20.66 20.64 21.32 22 22 C21.43271649 25.6761598 20.0603165 27.25404642 17.359375 29.75 C16.61816406 30.4409375 15.87695312 31.131875 15.11328125 31.84375 C14.33339844 32.5553125 13.55351563 33.266875 12.75 34 C11.98558594 34.7115625 11.22117187 35.423125 10.43359375 36.15625 C-1.70225289 47.39081615 -1.70225289 47.39081615 -10.46484375 47.27734375 C-15.61030776 46.71443474 -18.58466827 43.61635041 -21.8125 39.875 C-24.37002989 36.513675 -25.17903324 34.88044486 -25.3125 30.75 C-25.34988281 30.00234375 -25.38726563 29.2546875 -25.42578125 28.484375 C-24.35893244 22.259459 -19.09431101 17.80582456 -14.75 13.5625 C-14.17805908 12.99700439 -13.60611816 12.43150879 -13.0168457 11.84887695 C-8.82263974 7.73035947 -4.5228369 3.75764395 0 0 Z " fill="#FFFFFF" transform="translate(1066,479)"/>
<path d="M0 0 C21 2 21 2 26 3 C26 4.65 26 6.3 26 8 C11.21867882 7.03644647 11.21867882 7.03644647 5 6 C4.67 10.29 4.34 14.58 4 19 C5.12019531 19.13277344 6.24039063 19.26554687 7.39453125 19.40234375 C8.86720729 19.58056569 10.33986247 19.75896011 11.8125 19.9375 C12.55048828 20.02451172 13.28847656 20.11152344 14.04882812 20.20117188 C17.16733121 20.58216546 20.01108122 21.00369374 23 22 C23 23.65 23 25.3 23 27 C16.4 26.34 9.8 25.68 3 25 C2.67 29.29 2.34 33.58 2 38 C3.19238281 38.12117188 4.38476562 38.24234375 5.61328125 38.3671875 C7.17973408 38.53602673 8.74613788 38.70532132 10.3125 38.875 C11.09818359 38.95363281 11.88386719 39.03226562 12.69335938 39.11328125 C13.45068359 39.19707031 14.20800781 39.28085937 14.98828125 39.3671875 C15.68477783 39.44050293 16.38127441 39.51381836 17.09887695 39.58935547 C19 40 19 40 22 42 C21.67 43.32 21.34 44.64 21 46 C8.13 44.515 8.13 44.515 -5 43 C-3.35 28.81 -1.7 14.62 0 0 Z " fill="#FFFFFF" transform="translate(823,368)"/>
<path d="M0 0 C24.255 0.495 24.255 0.495 49 1 C47.21288477 4.57423045 46.15049875 6.0506566 43.33203125 8.64453125 C42.60306641 9.32193359 41.87410156 9.99933594 41.12304688 10.69726562 C40.36056641 11.39529297 39.59808594 12.09332031 38.8125 12.8125 C37.31800923 14.19292729 35.82450969 15.57442853 34.33203125 16.95703125 C33.60282471 17.63185547 32.87361816 18.30667969 32.12231445 19.00195312 C29.53127757 21.44127739 27.02452886 23.95587418 24.52075195 26.48413086 C22.64052771 28.35831811 20.69041189 30.13298846 18.6875 31.875 C17.70330078 32.73738281 17.70330078 32.73738281 16.69921875 33.6171875 C15 35 15 35 13 36 C12.34 34.02 11.68 32.04 11 30 C13.64 27.69 16.28 25.38 19 23 C18.54625 21.494375 18.0925 19.98875 17.625 18.4375 C16.38332264 14.30053705 15.17464682 10.1564426 14 6 C9.71 6 5.42 6 1 6 C0.67 4.02 0.34 2.04 0 0 Z M20 6 C20.68987134 9.44935669 21.18401011 11.75584851 22.5625 14.8125 C23.036875 15.864375 23.51125 16.91625 24 18 C25.23620074 17.13496623 26.46357259 16.25731366 27.6875 15.375 C28.37199219 14.88773438 29.05648438 14.40046875 29.76171875 13.8984375 C32.67956764 11.53378989 32.67956764 11.53378989 37 6 C31.39 6 25.78 6 20 6 Z " fill="#FFFFFF" transform="translate(1114,619)"/>
<path d="M0 0 C0.05663669 9.90602711 -0.06236521 19.79251121 -0.37231445 29.69360352 C-0.43884328 31.85616417 -0.49779436 34.01885874 -0.55664062 36.18164062 C-0.59850307 37.56511802 -0.64080325 38.94858225 -0.68359375 40.33203125 C-0.72025146 41.56671143 -0.75690918 42.8013916 -0.79467773 44.07348633 C-1 47 -1 47 -2 49 C-3.65 48.34 -5.3 47.68 -7 47 C-7.14285714 38.42857143 -7.14285714 38.42857143 -6 35 C-6.804375 34.7525 -7.60875 34.505 -8.4375 34.25 C-12.0842811 32.97042769 -15.41687504 31.3688991 -18.8515625 29.609375 C-21.00751092 28.7780875 -21.00751092 28.7780875 -23.125 29.72265625 C-25.24362007 31.05320665 -25.24362007 31.05320665 -27.375 33.6875 C-30 36 -30 36 -33.3125 35.8125 C-34.199375 35.544375 -35.08625 35.27625 -36 35 C-34.68729086 32.09778672 -33.28101018 30.03287708 -31.0234375 27.79296875 C-30.43916992 27.20999023 -29.85490234 26.62701172 -29.25292969 26.02636719 C-28.32335449 25.11612793 -28.32335449 25.11612793 -27.375 24.1875 C-26.73981445 23.55875977 -26.10462891 22.93001953 -25.45019531 22.28222656 C-21.72873382 18.62161676 -17.93945036 15.09349825 -13.9453125 11.73046875 C-10.4846437 8.65200232 -7.31258283 5.27669207 -4.1015625 1.94140625 C-2 0 -2 0 0 0 Z M-8.72265625 13.625 C-9.83846648 14.74749173 -10.95162666 15.87262226 -12.0625 17 C-12.63033203 17.57234375 -13.19816406 18.1446875 -13.78320312 18.734375 C-15.19103589 20.15403829 -16.59580248 21.57674097 -18 23 C-15.68118495 25.67901932 -13.68185532 26.66204403 -10.3125 27.6875 C-8.1778125 28.3371875 -8.1778125 28.3371875 -6 29 C-5.505 20.09 -5.505 20.09 -5 11 C-6.51034914 10.8843203 -6.51034914 10.8843203 -8.72265625 13.625 Z " fill="#FFFFFF" transform="translate(953,399)"/>
<path d="M0 0 C4.00114277 2.94558282 6.96854396 6.24846134 9.9375 10.1875 C14.95910755 16.73216976 20.17368315 23.09529523 25.49194336 29.40112305 C26.06436768 30.08730713 26.63679199 30.77349121 27.2265625 31.48046875 C27.99347412 32.39155396 27.99347412 32.39155396 28.77587891 33.32104492 C30 35 30 35 31 38 C29.35 38.66 27.7 39.32 26 40 C24.82739389 38.71372289 23.6620717 37.42080217 22.5 36.125 C21.8503125 35.40570313 21.200625 34.68640625 20.53125 33.9453125 C19 32 19 32 19 30 C17.95199219 30.3609375 16.90398438 30.721875 15.82421875 31.09375 C14.44539349 31.56273818 13.06648275 32.0314751 11.6875 32.5 C10.99720703 32.73847656 10.30691406 32.97695313 9.59570312 33.22265625 C6.61068511 34.23208263 4.17341086 35 1 35 C1.01160156 35.68707031 1.02320313 36.37414062 1.03515625 37.08203125 C1.04869141 38.43361328 1.04869141 38.43361328 1.0625 39.8125 C1.07410156 40.70582031 1.08570313 41.59914063 1.09765625 42.51953125 C1 45 1 45 0 48 C-2.475 48.495 -2.475 48.495 -5 49 C-4.53163898 37.98544084 -3.58273752 27.03065554 -2.5 16.0625 C-2.43428802 15.38362732 -2.36857605 14.70475464 -2.3008728 14.00531006 C-2.11130969 12.0564847 -1.9151569 10.10830377 -1.71875 8.16015625 C-1.60466797 7.02199463 -1.49058594 5.88383301 -1.37304688 4.71118164 C-1 2 -1 2 0 0 Z M3 11 C2.67 16.94 2.34 22.88 2 29 C6.88179827 28.30260025 10.50793002 27.64344024 15 26 C14.62488281 25.50371094 14.24976563 25.00742187 13.86328125 24.49609375 C11.25288493 21.03090771 8.67408111 17.55537475 6.1875 14 C5.465625 13.01 4.74375 12.02 4 11 C3.67 11 3.34 11 3 11 Z " fill="#FFFFFF" transform="translate(674,381)"/>
<path d="M0 0 C8.58 0 17.16 0 26 0 C26 1.65 26 3.3 26 5 C19.07 5 12.14 5 5 5 C5 9.62 5 14.24 5 19 C11.6 19 18.2 19 25 19 C25 20.65 25 22.3 25 24 C18.4 24 11.8 24 5 24 C5 28.62 5 33.24 5 38 C11.93 38 18.86 38 26 38 C26 39.65 26 41.3 26 43 C17.42 43 8.84 43 0 43 C0 28.81 0 14.62 0 0 Z " fill="#FFFFFF" transform="translate(775,367)"/>
<path d="M0 0 C0 1.65 0 3.3 0 5 C-5.28 5.66 -10.56 6.32 -16 7 C-14.845 7.71285156 -13.69 8.42570313 -12.5 9.16015625 C-10.99916977 10.12631571 -9.49921448 11.09383524 -8 12.0625 C-7.236875 12.52849609 -6.47375 12.99449219 -5.6875 13.47460938 C-3.56211588 14.8693927 -1.7348302 16.13923649 0 18 C0.5 21.87109375 0.5 21.87109375 0 25 C-5.45786869 22.08067489 -10.44355067 18.63579014 -15.37963867 14.91040039 C-18.37467923 12.59209619 -18.37467923 12.59209619 -21.97973633 12.23974609 C-24.13248491 13.04985595 -25.53808548 13.97864796 -27.3125 15.43359375 C-27.91320313 15.91763672 -28.51390625 16.40167969 -29.1328125 16.90039062 C-29.74898437 17.40763672 -30.36515625 17.91488281 -31 18.4375 C-38.43530521 24.51173992 -38.43530521 24.51173992 -42 26 C-43 25 -43 25 -43.421875 22.7578125 C-42.80957259 18.75516895 -40.30720838 17.19990032 -37.25 14.875 C-36.71117187 14.44574219 -36.17234375 14.01648438 -35.6171875 13.57421875 C-32.78478543 11.32902199 -29.8914447 9.16858352 -27 7 C-32.28 6.67 -37.56 6.34 -43 6 C-43 4.35 -43 2.7 -43 1 C-28.65439344 0.26592977 -14.36433378 -0.14159803 0 0 Z " fill="#FFFFFF" transform="translate(1187,744)"/>
<path d="M0 0 C1.32 0.66 2.64 1.32 4 2 C4 2.99 4 3.98 4 5 C2.39868164 6.51464844 2.39868164 6.51464844 0.16015625 8.109375 C-0.65646484 8.69976563 -1.47308594 9.29015625 -2.31445312 9.8984375 C-3.18005859 10.50945313 -4.04566406 11.12046875 -4.9375 11.75 C-6.61416564 12.95189221 -8.28994962 14.15501533 -9.96484375 15.359375 C-11.20790283 16.24979492 -11.20790283 16.24979492 -12.47607422 17.15820312 C-16.38914407 20.01370699 -20.19981683 22.99662017 -24 26 C-21.84921278 29.85658398 -19.76544722 33.54319097 -17 37 C-17.66 38.32 -18.32 39.64 -19 41 C-19.99 41 -20.98 41 -22 41 C-23.3503418 39.62304688 -23.3503418 39.62304688 -24.69921875 37.71875 C-25.18583984 37.04199219 -25.67246094 36.36523438 -26.17382812 35.66796875 C-26.67333984 34.95253906 -27.17285156 34.23710938 -27.6875 33.5 C-28.19861328 32.78457031 -28.70972656 32.06914063 -29.23632812 31.33203125 C-30.49983511 29.56075977 -31.75378948 27.78346291 -33 26 C-28.79445264 21.55101777 -24.15858487 17.85484619 -19.3125 14.125 C-18.51537598 13.50802246 -17.71825195 12.89104492 -16.89697266 12.25537109 C-11.37498845 8.00242129 -5.7964132 3.8739847 0 0 Z " fill="#FFFFFF" transform="translate(1101,520)"/>
<path d="M0 0 C0.495 2.475 0.495 2.475 1 5 C-16.325 9.455 -16.325 9.455 -34 14 C-34 17.47976503 -33.6465936 20.35538361 -33 23.75 C-32.814375 24.73484375 -32.62875 25.7196875 -32.4375 26.734375 C-32.293125 27.48203125 -32.14875 28.2296875 -32 29 C-33.65 29.33 -35.3 29.66 -37 30 C-39.43430815 23.42736799 -40.90109517 16.91663627 -42 10 C-32.03116219 7.09775375 -22.06052626 4.19538278 -12 1.625 C-10.7625 1.30789063 -9.525 0.99078125 -8.25 0.6640625 C-5.37741904 0.07711687 -2.91612213 -0.14359692 0 0 Z " fill="#FFFFFF" transform="translate(1173,658)"/>
<path d="M0 0 C1.65 0.33 3.3 0.66 5 1 C4.37277363 8.51083726 2.77539058 15.57460864 0.9375 22.875 C0.38105033 25.10079868 -0.17247774 27.32733041 -0.72265625 29.5546875 C-0.96765869 30.52905762 -1.21266113 31.50342773 -1.46508789 32.50732422 C-2.10490842 35.06396633 -2.10490842 35.06396633 -2 38 C4.435 39.485 4.435 39.485 11 41 C11 42.65 11 44.3 11 46 C7.59426399 47.702868 3.99075558 46.00098627 0.4375 45.125 C-0.75262695 44.84462891 -0.75262695 44.84462891 -1.96679688 44.55859375 C-7.86079865 43.13920135 -7.86079865 43.13920135 -9 42 C-8.53295432 33.10625784 -6.08149558 24.5438349 -3.9375 15.9375 C-3.55611948 14.38880012 -3.17525569 12.83997289 -2.79492188 11.29101562 C-1.86923561 7.52584829 -0.93656158 3.76247623 0 0 Z " fill="#FFFFFF" transform="translate(871,375)"/>
<path d="M0 0 C1.79305054 4.06189059 3.58419788 8.12461769 5.375 12.1875 C5.88289062 13.33798828 6.39078125 14.48847656 6.9140625 15.67382812 C7.40390625 16.78564453 7.89375 17.89746094 8.3984375 19.04296875 C8.84880371 20.06414795 9.29916992 21.08532715 9.76318359 22.13745117 C12.04315503 27.41432939 13.61766243 31.13220692 13 37 C11.03287838 41.09161298 9.53166059 42.70033676 5.5625 44.9375 C2.05162246 45.98460383 0.4177122 46.1392374 -3 45 C-3.33 43.35 -3.66 41.7 -4 40 C-3.37351562 39.91363281 -2.74703125 39.82726562 -2.1015625 39.73828125 C-1.28429687 39.59777344 -0.46703125 39.45726562 0.375 39.3125 C1.18710937 39.18488281 1.99921875 39.05726563 2.8359375 38.92578125 C5.17995786 38.17250901 5.17995786 38.17250901 6.28710938 35.86254883 C7.27191409 31.90815318 6.19589717 29.97834147 4.5703125 26.2734375 C4.30113007 25.64394196 4.03194763 25.01444641 3.75460815 24.36587524 C2.8942736 22.36143346 2.01093822 20.36824069 1.125 18.375 C0.250476 16.37306601 -0.61905324 14.36914285 -1.48318481 12.36270142 C-2.268183 10.54544476 -3.06711068 8.73422418 -3.86669922 6.92333984 C-5 4 -5 4 -5 1 C-3 0 -3 0 0 0 Z " fill="#FFFFFF" transform="translate(641,396)"/>
</svg>
