<?xml version="1.0" standalone="no"?>
<!DOCTYPE svg PUBLIC "-//W3C//DTD SVG 20010904//EN"
 "http://www.w3.org/TR/2001/REC-SVG-20010904/DTD/svg10.dtd">
<svg version="1.0" xmlns="http://www.w3.org/2000/svg"
 width="180.000000pt" height="180.000000pt" viewBox="0 0 180.000000 180.000000"
 preserveAspectRatio="xMidYMid meet">

<g transform="translate(0.000000,180.000000) scale(0.100000,-0.100000)"
fill="#000000" stroke="none">
<path d="M767 1790 c-360 -57 -645 -316 -739 -670 -32 -121 -32 -319 0 -440
86 -324 328 -566 652 -652 121 -32 319 -32 440 0 199 53 389 179 498 331 36
49 40 71 15 70 -11 0 -13 -3 -5 -6 29 -11 7 -18 -68 -21 -101 -3 -131 10 -136
60 -2 31 1 37 22 42 32 8 32 42 -1 106 -29 58 -17 56 -224 39 -205 -16 -212
-18 -226 -59 -29 -85 -30 -80 12 -80 33 0 103 -30 103 -44 0 -3 -12 -17 -27
-31 -27 -24 -33 -25 -154 -25 l-126 0 -1 35 c-1 19 3 35 8 35 6 0 10 9 10 19
0 24 16 36 23 19 5 -15 8 -8 26 67 13 54 96 280 132 360 13 28 23 52 24 55 5
40 121 346 139 369 23 30 89 50 130 41 21 -5 42 -12 46 -17 15 -15 99 -288
149 -483 27 -107 59 -222 71 -255 12 -33 27 -78 33 -100 14 -46 22 -55 59 -55
20 0 27 -6 30 -22 4 -33 61 95 89 202 33 121 33 319 1 440 -85 322 -330 568
-647 650 -92 24 -270 34 -358 20z m120 -402 c16 -13 17 -100 1 -116 -16 -16
-28 -15 -28 2 0 10 -11 11 -52 5 -28 -5 -55 -12 -60 -17 -13 -13 -35 -181 -42
-317 -17 -309 -45 -435 -113 -496 -75 -68 -130 -81 -217 -50 -89 31 -136 85
-151 176 -4 22 -11 55 -17 74 -10 32 -12 33 -49 27 -43 -7 -43 -6 -33 57 5 29
11 37 28 37 12 0 27 5 34 10 9 7 9 7 2 -2 -16 -19 -12 -29 7 -19 23 11 92 30
118 32 52 3 55 1 55 -43 0 -55 -13 -77 -34 -59 -57 48 -43 -113 15 -172 25
-24 34 -28 62 -21 17 4 39 7 47 7 8 0 36 25 62 57 33 41 52 78 68 131 21 69
22 87 17 304 -6 256 -11 289 -44 292 -13 2 -23 -2 -23 -7 0 -6 -18 -10 -39
-10 -34 0 -40 4 -49 30 -8 20 -7 38 1 59 10 29 13 30 91 35 45 4 99 8 121 10
63 6 208 -4 222 -16z"/>
<path d="M482 1360 c0 -14 2 -19 5 -12 2 6 2 18 0 25 -3 6 -5 1 -5 -13z"/>
<path d="M689 1363 c25 -3 54 -11 65 -19 27 -19 32 -18 32 6 0 18 -6 20 -71
18 -51 -1 -58 -3 -26 -5z"/>
<path d="M538 1343 c12 -2 30 -2 40 0 9 3 -1 5 -23 4 -22 0 -30 -2 -17 -4z"/>
<path d="M861 1314 c0 -11 3 -14 6 -6 3 7 2 16 -1 19 -3 4 -6 -2 -5 -13z"/>
<path d="M477 1304 c-4 -4 -4 -10 -1 -15 6 -10 34 0 34 12 0 10 -24 12 -33 3z"/>
<path d="M652 1070 c0 -14 2 -19 5 -12 2 6 2 18 0 25 -3 6 -5 1 -5 -13z"/>
<path d="M653 745 c0 -22 2 -30 4 -17 2 12 2 30 0 40 -3 9 -5 -1 -4 -23z"/>
<path d="M231 648 c0 -7 7 -29 14 -48 12 -31 14 -32 14 -10 1 34 -9 70 -20 70
-5 0 -9 -6 -8 -12z"/>
<path d="M607 594 c-22 -29 -14 -47 8 -18 12 16 20 45 13 44 -2 0 -11 -12 -21
-26z"/>
<path d="M290 515 c0 -14 87 -71 96 -62 3 2 -11 14 -31 26 -19 11 -38 27 -41
36 -8 19 -24 20 -24 0z"/>
<path d="M540 457 c-25 -11 -47 -23 -50 -28 -3 -4 -26 -9 -50 -11 -42 -3 -43
-4 -17 -12 36 -11 102 8 142 39 39 32 30 36 -25 12z"/>
<path d="M1228 1171 c-15 -31 -54 -106 -87 -167 -52 -96 -109 -250 -97 -262 3
-2 70 3 150 12 80 9 164 16 186 16 44 0 50 11 25 47 -8 12 -43 106 -76 210
-34 103 -64 191 -68 194 -3 4 -18 -19 -33 -50z"/>
</g>
</svg>
